<svg width="25" height="24" viewBox="0 0 25 24" fill="none" xmlns="http://www.w3.org/2000/svg">
<path d="M16.0176 16.1238C16.3313 15.8386 16.3429 15.3492 16.0432 15.0494L12.7938 11.8V6.75C12.7938 6.33579 12.458 6 12.0438 6C11.6295 6 11.2938 6.33579 11.2938 6.75V11.9858C11.2938 12.251 11.3991 12.5054 11.5867 12.6929L14.9932 16.0994C15.2734 16.3796 15.7243 16.3904 16.0176 16.1238Z" fill="#141C24"/>
<path d="M12.0938 22C10.7271 22 9.43542 21.7375 8.21875 21.2125C7.00208 20.6875 5.93958 19.9708 5.03125 19.0625C4.12292 18.1542 3.40625 17.0917 2.88125 15.875C2.35625 14.6583 2.09375 13.3583 2.09375 11.975C2.09375 10.6083 2.35625 9.31667 2.88125 8.1C3.40625 6.88333 4.12292 5.825 5.03125 4.925C5.93958 4.025 7.00208 3.3125 8.21875 2.7875C9.43542 2.2625 10.7354 2 12.1187 2C13.4854 2 14.7771 2.2625 15.9937 2.7875C17.2104 3.3125 18.2688 4.025 19.1688 4.925C20.0688 5.825 20.7812 6.88333 21.3062 8.1C21.8312 9.31667 22.0938 10.6167 22.0938 12C22.0938 13.3667 21.8312 14.6583 21.3062 15.875C20.7812 17.0917 20.0688 18.1542 19.1688 19.0625C18.2688 19.9708 17.2104 20.6875 15.9937 21.2125C14.7771 21.7375 13.4771 22 12.0938 22ZM12.0938 20.5C14.4604 20.5 16.4688 19.6708 18.1187 18.0125C19.7687 16.3542 20.5938 14.35 20.5938 12C20.5938 9.63333 19.7687 7.625 18.1187 5.975C16.4688 4.325 14.4604 3.5 12.0938 3.5C9.74375 3.5 7.73958 4.325 6.08125 5.975C4.42292 7.625 3.59375 9.63333 3.59375 12C3.59375 14.35 4.42292 16.3542 6.08125 18.0125C7.73958 19.6708 9.74375 20.5 12.0938 20.5Z" fill="#141C24"/>
</svg>
