<svg width="25" height="24" viewBox="0 0 25 24" fill="none" xmlns="http://www.w3.org/2000/svg">
<path fill-rule="evenodd" clip-rule="evenodd" d="M16.0938 8C16.0938 10.2091 14.3029 12 12.0938 12C9.88461 12 8.09375 10.2091 8.09375 8C8.09375 5.79086 9.88461 4 12.0938 4C14.3029 4 16.0938 5.79086 16.0938 8ZM14.5938 8C14.5938 9.38071 13.4745 10.5 12.0938 10.5C10.713 10.5 9.59375 9.38071 9.59375 8C9.59375 6.61929 10.713 5.5 12.0938 5.5C13.4745 5.5 14.5938 6.61929 14.5938 8Z" fill="#141C24"/>
<path fill-rule="evenodd" clip-rule="evenodd" d="M4.09375 17.772V20H20.0938V17.772C20.0938 16.1046 19.0595 14.6121 17.4982 14.0267L17.3606 13.9751C13.9648 12.7017 10.2227 12.7017 6.8269 13.9751L6.68926 14.0267C5.12804 14.6121 4.09375 16.1046 4.09375 17.772ZM7.35359 15.3796C10.4098 14.2335 13.7777 14.2335 16.8339 15.3796L16.9716 15.4312C17.9473 15.7971 18.5938 16.7299 18.5938 17.772V18.5H5.59375V17.772C5.59375 16.7299 6.24018 15.7971 7.21594 15.4312L7.35359 15.3796Z" fill="#141C24"/>
</svg>
