<svg width="64" height="64" viewBox="0 0 64 64" fill="none" xmlns="http://www.w3.org/2000/svg">
<path d="M32.0001 58.6673V34.6673M53.3334 34.6673V44.9873C53.3344 45.9938 53.0589 46.9813 52.5369 47.8419C52.0149 48.7025 51.2665 49.4031 50.3734 49.8673L34.3734 58.0806C33.6403 58.4616 32.8262 58.6605 32.0001 58.6605C31.1739 58.6605 30.3598 58.4616 29.6267 58.0806L13.6267 49.8673C12.7336 49.4031 11.9852 48.7025 11.4632 47.8419C10.9412 46.9813 10.6657 45.9938 10.6667 44.9873V34.6673M40.4534 5.89398C41.1175 5.52263 41.8658 5.32765 42.6267 5.32765C43.3877 5.32765 44.1359 5.52263 44.8001 5.89398L56.0001 12.1873C56.7933 12.6359 57.4532 13.2869 57.9123 14.0741C58.3714 14.8612 58.6134 15.7561 58.6134 16.6673C58.6134 17.5786 58.3714 18.4735 57.9123 19.2606C57.4532 20.0477 56.7933 20.6988 56.0001 21.1473L23.5201 39.4406C22.8539 39.8206 22.1003 40.0204 21.3334 40.0204C20.5665 40.0204 19.8129 39.8206 19.1467 39.4406L8.00005 33.1473C7.20685 32.6988 6.54695 32.0477 6.0878 31.2606C5.62866 30.4735 5.38672 29.5786 5.38672 28.6673C5.38672 27.7561 5.62866 26.8612 6.0878 26.0741C6.54695 25.2869 7.20685 24.6359 8.00005 24.1873L40.4534 5.89398ZM56.0001 33.1473C56.7933 32.6988 57.4532 32.0477 57.9123 31.2606C58.3714 30.4735 58.6134 29.5786 58.6134 28.6673C58.6134 27.7561 58.3714 26.8612 57.9123 26.0741C57.4532 25.2869 56.7933 24.6358 56.0001 24.1873L23.5467 5.86731C22.8851 5.4884 22.1359 5.28906 21.3734 5.28906C20.6109 5.28906 19.8617 5.4884 19.2001 5.86731L8.00005 12.1873C7.20685 12.6359 6.54695 13.2869 6.0878 14.0741C5.62866 14.8612 5.38672 15.7561 5.38672 16.6673C5.38672 17.5786 5.62866 18.4735 6.0878 19.2606C6.54695 20.0477 7.20685 20.6988 8.00005 21.1473L40.4801 39.4406C41.1414 39.8206 41.8907 40.0205 42.6534 40.0205C43.4161 40.0205 44.1654 39.8206 44.8267 39.4406L56.0001 33.1473Z" stroke="#1975FF" stroke-width="2.1875" stroke-linecap="round" stroke-linejoin="round"/>
<path d="M32 11L12 23L32 35L52 23L32 11Z" fill="#1975FF"/>
</svg>
