<svg width="107" height="36" viewBox="0 0 107 36" fill="none" xmlns="http://www.w3.org/2000/svg">
<path d="M17.5 32.5838V19.4588M29.1666 19.4588V25.1026C29.1672 25.653 29.0165 26.193 28.7311 26.6637C28.4456 27.1343 28.0363 27.5175 27.5479 27.7713L18.7979 32.263C18.397 32.4713 17.9518 32.5801 17.5 32.5801C17.0481 32.5801 16.603 32.4713 16.202 32.263L7.45205 27.7713C6.96363 27.5175 6.55434 27.1343 6.26887 26.6637C5.98341 26.193 5.83273 25.653 5.8333 25.1026V19.4588M22.1229 3.72339C22.4861 3.52031 22.8953 3.41368 23.3114 3.41368C23.7276 3.41368 24.1368 3.52031 24.5 3.72339L30.625 7.16506C31.0588 7.41035 31.4196 7.76642 31.6707 8.19687C31.9218 8.62732 32.0541 9.11672 32.0541 9.61506C32.0541 10.1134 31.9218 10.6028 31.6707 11.0332C31.4196 11.4637 31.0588 11.8198 30.625 12.0651L12.8625 22.0692C12.4982 22.277 12.086 22.3863 11.6666 22.3863C11.2472 22.3863 10.8351 22.277 10.4708 22.0692L4.37497 18.6276C3.94118 18.3823 3.5803 18.0262 3.32921 17.5957C3.07811 17.1653 2.9458 16.6759 2.9458 16.1776C2.9458 15.6792 3.07811 15.1898 3.32921 14.7594C3.5803 14.3289 3.94118 13.9729 4.37497 13.7276L22.1229 3.72339ZM30.625 18.6276C31.0588 18.3823 31.4196 18.0262 31.6707 17.5957C31.9218 17.1653 32.0541 16.6759 32.0541 16.1776C32.0541 15.6792 31.9218 15.1898 31.6707 14.7594C31.4196 14.3289 31.0588 13.9729 30.625 13.7276L12.8771 3.70881C12.5152 3.50159 12.1055 3.39258 11.6885 3.39258C11.2715 3.39258 10.8618 3.50159 10.5 3.70881L4.37497 7.16506C3.94118 7.41035 3.5803 7.76642 3.32921 8.19687C3.07811 8.62732 2.9458 9.11672 2.9458 9.61506C2.9458 10.1134 3.07811 10.6028 3.32921 11.0332C3.5803 11.4637 3.94118 11.8198 4.37497 12.0651L22.1375 22.0692C22.4991 22.277 22.9089 22.3863 23.326 22.3863C23.7431 22.3863 24.1529 22.277 24.5145 22.0692L30.625 18.6276Z" stroke="#1975FF" stroke-width="2" stroke-linecap="round" stroke-linejoin="round"/>
<path d="M17.5 6.51562L6.5625 13.0781L17.5 19.6406L28.4375 13.0781L17.5 6.51562Z" fill="#1975FF"/>
<path d="M56.0854 3.83799V14H44.822V3.83799H46.9513V12.2965H49.4478V3.83799H51.4596V12.2965H53.9707V3.83799H56.0854ZM65.8962 14H63.7669V9.91757C63.7669 8.5274 63.8697 7.22533 64.0753 6.01137L60.874 14H58.2307V3.83799H60.36V7.96447C60.36 8.78683 60.3306 9.47213 60.2719 10.0204C60.2229 10.5588 60.1495 11.156 60.0516 11.8119L63.3117 3.83799H65.8962V14ZM78.9948 8.86026C78.9948 10.319 78.5738 11.4252 77.7319 12.1791C76.8899 12.9231 75.72 13.3196 74.2221 13.3685V14.558H72.1222V13.3539C70.6047 13.2853 69.4299 12.8839 68.5978 12.1497C67.7656 11.4057 67.3496 10.3239 67.3496 8.90431C67.3496 7.4456 67.7705 6.34423 68.6125 5.60019C69.4544 4.84636 70.6243 4.44497 72.1222 4.39602V3.29465H74.2221V4.4107C75.7396 4.47923 76.9144 4.88552 77.7465 5.62956C78.5787 6.36381 78.9948 7.44071 78.9948 8.86026ZM74.134 11.9882C75.0641 11.9294 75.7396 11.6504 76.1606 11.1511C76.5815 10.6518 76.792 9.8882 76.792 8.86026C76.792 7.85189 76.5766 7.09806 76.1459 6.59877C75.7151 6.09948 75.0445 5.82536 74.134 5.77641V11.9882ZM69.5523 8.90431C69.5523 9.91268 69.7677 10.6665 70.1985 11.1658C70.6292 11.6651 71.2998 11.9392 72.2103 11.9882V5.77641C71.2803 5.83515 70.6047 6.11416 70.1838 6.61345C69.7628 7.11274 69.5523 7.87636 69.5523 8.90431ZM86.6687 3.83799L86.4337 5.52676H83.8639V14H81.7052V5.52676H79.0031V3.83799H86.6687Z" fill="#1975FF"/>
<path d="M47.48 21.838C49.066 21.838 50.3338 22.2002 51.2834 22.9247C52.2428 23.6393 52.7225 24.9561 52.7225 26.8749C52.7225 28.7546 52.2526 30.0812 51.3128 30.8546C50.3827 31.6182 49.1883 32 47.7296 32H44.822V21.838H47.48ZM46.9807 23.424V30.414H47.8618C48.6939 30.414 49.3352 30.1595 49.7855 29.6504C50.2457 29.1315 50.4757 28.2064 50.4757 26.8749C50.4757 25.9547 50.3582 25.24 50.1233 24.7309C49.8981 24.2219 49.5946 23.8792 49.2128 23.703C48.831 23.517 48.366 23.424 47.8177 23.424H46.9807ZM60.4379 21.838L60.2029 23.4093H56.5317V26.0526H59.733V27.6092H56.5317V30.414H60.4672V32H54.373V21.838H60.4379ZM64.29 21.838V30.2672H68.3137L68.0788 32H62.1314V21.838H64.29ZM71.7616 21.838V32H69.6029V21.838H71.7616ZM81.2914 21.838L78.369 32H75.7404L72.7153 21.838H75.0209L77.0915 30.2084L79.0886 21.838H81.2914ZM88.3164 21.838L88.0814 23.4093H84.4102V26.0526H87.6115V27.6092H84.4102V30.414H88.3458V32H82.2515V21.838H88.3164ZM93.2699 28.0204H92.1686V32H90.0099V21.838H93.1818C94.5426 21.838 95.5657 22.0925 96.251 22.6016C96.9363 23.1009 97.2789 23.8596 97.2789 24.8778C97.2789 25.5435 97.1125 26.0917 96.7797 26.5225C96.4566 26.9533 95.9524 27.3204 95.2671 27.6239L97.8957 32H95.4433L93.2699 28.0204ZM92.1686 26.4931H93.2993C93.8769 26.4931 94.3126 26.3659 94.6063 26.1113C94.9 25.847 95.0468 25.4358 95.0468 24.8778C95.0468 24.3589 94.8902 23.982 94.5769 23.747C94.2734 23.5023 93.7937 23.3799 93.1378 23.3799H92.1686V26.4931ZM106.134 21.838L102.874 28.1672V32H100.715V28.1819L97.4549 21.838H99.8192L101.846 26.4491L103.858 21.838H106.134Z" fill="#1975FF"/>
</svg>
