<svg width="64" height="64" viewBox="0 0 64 64" fill="none" xmlns="http://www.w3.org/2000/svg">
<g clip-path="url(#clip0_13669_38031)">
<g clip-path="url(#clip1_13669_38031)">
<path d="M2.17562 0.255859H0.255615V2.17586H2.17562V0.255859Z" fill="black"/>
<path d="M4.09603 0.255859H2.17603V2.17586H4.09603V0.255859Z" fill="black"/>
<path d="M6.01595 0.255859H4.09595V2.17586H6.01595V0.255859Z" fill="black"/>
<path d="M7.93636 0.255859H6.01636V2.17586H7.93636V0.255859Z" fill="black"/>
<path d="M9.85604 0.255859H7.93604V2.17586H9.85604V0.255859Z" fill="black"/>
<path d="M11.776 0.255859H9.85596V2.17586H11.776V0.255859Z" fill="black"/>
<path d="M13.6964 0.255859H11.7764V2.17586H13.6964V0.255859Z" fill="black"/>
<path d="M17.5357 0.255859H15.6157V2.17586H17.5357V0.255859Z" fill="black"/>
<path d="M23.2957 0.255859H21.3757V2.17586H23.2957V0.255859Z" fill="black"/>
<path d="M25.2159 0.255859H23.2959V2.17586H25.2159V0.255859Z" fill="black"/>
<path d="M27.1361 0.255859H25.2161V2.17586H27.1361V0.255859Z" fill="black"/>
<path d="M32.8961 0.255859H30.9761V2.17586H32.8961V0.255859Z" fill="black"/>
<path d="M34.8162 0.255859H32.8962V2.17586H34.8162V0.255859Z" fill="black"/>
<path d="M36.7359 0.255859H34.8159V2.17586H36.7359V0.255859Z" fill="black"/>
<path d="M38.6558 0.255859H36.7358V2.17586H38.6558V0.255859Z" fill="black"/>
<path d="M40.5762 0.255859H38.6562V2.17586H40.5762V0.255859Z" fill="black"/>
<path d="M42.4959 0.255859H40.5759V2.17586H42.4959V0.255859Z" fill="black"/>
<path d="M44.4158 0.255859H42.4958V2.17586H44.4158V0.255859Z" fill="black"/>
<path d="M46.3363 0.255859H44.4163V2.17586H46.3363V0.255859Z" fill="black"/>
<path d="M48.2559 0.255859H46.3359V2.17586H48.2559V0.255859Z" fill="black"/>
<path d="M52.096 0.255859H50.176V2.17586H52.096V0.255859Z" fill="black"/>
<path d="M54.0159 0.255859H52.0959V2.17586H54.0159V0.255859Z" fill="black"/>
<path d="M55.9364 0.255859H54.0164V2.17586H55.9364V0.255859Z" fill="black"/>
<path d="M57.856 0.255859H55.936V2.17586H57.856V0.255859Z" fill="black"/>
<path d="M59.776 0.255859H57.856V2.17586H59.776V0.255859Z" fill="black"/>
<path d="M61.6964 0.255859H59.7764V2.17586H61.6964V0.255859Z" fill="black"/>
<path d="M63.616 0.255859H61.696V2.17586H63.616V0.255859Z" fill="black"/>
<path d="M2.17562 2.17578H0.255615V4.09578H2.17562V2.17578Z" fill="black"/>
<path d="M13.6964 2.17578H11.7764V4.09578H13.6964V2.17578Z" fill="black"/>
<path d="M17.5357 2.17578H15.6157V4.09578H17.5357V2.17578Z" fill="black"/>
<path d="M19.4561 2.17578H17.5361V4.09578H19.4561V2.17578Z" fill="black"/>
<path d="M21.3761 2.17578H19.4561V4.09578H21.3761V2.17578Z" fill="black"/>
<path d="M23.2957 2.17578H21.3757V4.09578H23.2957V2.17578Z" fill="black"/>
<path d="M27.1361 2.17578H25.2161V4.09578H27.1361V2.17578Z" fill="black"/>
<path d="M32.8961 2.17578H30.9761V4.09578H32.8961V2.17578Z" fill="black"/>
<path d="M34.8162 2.17578H32.8962V4.09578H34.8162V2.17578Z" fill="black"/>
<path d="M36.7359 2.17578H34.8159V4.09578H36.7359V2.17578Z" fill="black"/>
<path d="M38.6558 2.17578H36.7358V4.09578H38.6558V2.17578Z" fill="black"/>
<path d="M40.5762 2.17578H38.6562V4.09578H40.5762V2.17578Z" fill="black"/>
<path d="M44.4158 2.17578H42.4958V4.09578H44.4158V2.17578Z" fill="black"/>
<path d="M52.096 2.17578H50.176V4.09578H52.096V2.17578Z" fill="black"/>
<path d="M63.616 2.17578H61.696V4.09578H63.616V2.17578Z" fill="black"/>
<path d="M2.17562 4.0957H0.255615V6.0157H2.17562V4.0957Z" fill="black"/>
<path d="M6.01595 4.0957H4.09595V6.0157H6.01595V4.0957Z" fill="black"/>
<path d="M7.93636 4.0957H6.01636V6.0157H7.93636V4.0957Z" fill="black"/>
<path d="M9.85604 4.0957H7.93604V6.0157H9.85604V4.0957Z" fill="black"/>
<path d="M13.6964 4.0957H11.7764V6.0157H13.6964V4.0957Z" fill="black"/>
<path d="M17.5357 4.0957H15.6157V6.0157H17.5357V4.0957Z" fill="black"/>
<path d="M23.2957 4.0957H21.3757V6.0157H23.2957V4.0957Z" fill="black"/>
<path d="M25.2159 4.0957H23.2959V6.0157H25.2159V4.0957Z" fill="black"/>
<path d="M29.0557 4.0957H27.1357V6.0157H29.0557V4.0957Z" fill="black"/>
<path d="M30.9759 4.0957H29.0559V6.0157H30.9759V4.0957Z" fill="black"/>
<path d="M40.5762 4.0957H38.6562V6.0157H40.5762V4.0957Z" fill="black"/>
<path d="M42.4959 4.0957H40.5759V6.0157H42.4959V4.0957Z" fill="black"/>
<path d="M46.3363 4.0957H44.4163V6.0157H46.3363V4.0957Z" fill="black"/>
<path d="M52.096 4.0957H50.176V6.0157H52.096V4.0957Z" fill="black"/>
<path d="M55.9364 4.0957H54.0164V6.0157H55.9364V4.0957Z" fill="black"/>
<path d="M57.856 4.0957H55.936V6.0157H57.856V4.0957Z" fill="black"/>
<path d="M59.776 4.0957H57.856V6.0157H59.776V4.0957Z" fill="black"/>
<path d="M63.616 4.0957H61.696V6.0157H63.616V4.0957Z" fill="black"/>
<path d="M2.17562 6.01562H0.255615V7.93563H2.17562V6.01562Z" fill="black"/>
<path d="M6.01595 6.01562H4.09595V7.93563H6.01595V6.01562Z" fill="black"/>
<path d="M7.93636 6.01562H6.01636V7.93563H7.93636V6.01562Z" fill="black"/>
<path d="M9.85604 6.01562H7.93604V7.93563H9.85604V6.01562Z" fill="black"/>
<path d="M13.6964 6.01562H11.7764V7.93563H13.6964V6.01562Z" fill="black"/>
<path d="M25.2159 6.01562H23.2959V7.93563H25.2159V6.01562Z" fill="black"/>
<path d="M27.1361 6.01562H25.2161V7.93563H27.1361V6.01562Z" fill="black"/>
<path d="M30.9759 6.01562H29.0559V7.93563H30.9759V6.01562Z" fill="black"/>
<path d="M36.7359 6.01562H34.8159V7.93563H36.7359V6.01562Z" fill="black"/>
<path d="M38.6558 6.01562H36.7358V7.93563H38.6558V6.01562Z" fill="black"/>
<path d="M40.5762 6.01562H38.6562V7.93563H40.5762V6.01562Z" fill="black"/>
<path d="M42.4959 6.01562H40.5759V7.93563H42.4959V6.01562Z" fill="black"/>
<path d="M48.2559 6.01562H46.3359V7.93563H48.2559V6.01562Z" fill="black"/>
<path d="M52.096 6.01562H50.176V7.93563H52.096V6.01562Z" fill="black"/>
<path d="M55.9364 6.01562H54.0164V7.93563H55.9364V6.01562Z" fill="black"/>
<path d="M57.856 6.01562H55.936V7.93563H57.856V6.01562Z" fill="black"/>
<path d="M59.776 6.01562H57.856V7.93563H59.776V6.01562Z" fill="black"/>
<path d="M63.616 6.01562H61.696V7.93563H63.616V6.01562Z" fill="black"/>
<path d="M2.17562 7.93555H0.255615V9.85555H2.17562V7.93555Z" fill="black"/>
<path d="M6.01595 7.93555H4.09595V9.85555H6.01595V7.93555Z" fill="black"/>
<path d="M7.93636 7.93555H6.01636V9.85555H7.93636V7.93555Z" fill="black"/>
<path d="M9.85604 7.93555H7.93604V9.85555H9.85604V7.93555Z" fill="black"/>
<path d="M13.6964 7.93555H11.7764V9.85555H13.6964V7.93555Z" fill="black"/>
<path d="M19.4561 7.93555H17.5361V9.85555H19.4561V7.93555Z" fill="black"/>
<path d="M27.1361 7.93555H25.2161V9.85555H27.1361V7.93555Z" fill="black"/>
<path d="M29.0557 7.93555H27.1357V9.85555H29.0557V7.93555Z" fill="black"/>
<path d="M30.9759 7.93555H29.0559V9.85555H30.9759V7.93555Z" fill="black"/>
<path d="M34.8162 7.93555H32.8962V9.85555H34.8162V7.93555Z" fill="black"/>
<path d="M36.7359 7.93555H34.8159V9.85555H36.7359V7.93555Z" fill="black"/>
<path d="M40.5762 7.93555H38.6562V9.85555H40.5762V7.93555Z" fill="black"/>
<path d="M42.4959 7.93555H40.5759V9.85555H42.4959V7.93555Z" fill="black"/>
<path d="M44.4158 7.93555H42.4958V9.85555H44.4158V7.93555Z" fill="black"/>
<path d="M52.096 7.93555H50.176V9.85555H52.096V7.93555Z" fill="black"/>
<path d="M55.9364 7.93555H54.0164V9.85555H55.9364V7.93555Z" fill="black"/>
<path d="M57.856 7.93555H55.936V9.85555H57.856V7.93555Z" fill="black"/>
<path d="M59.776 7.93555H57.856V9.85555H59.776V7.93555Z" fill="black"/>
<path d="M63.616 7.93555H61.696V9.85555H63.616V7.93555Z" fill="black"/>
<path d="M2.17562 9.85547H0.255615V11.7755H2.17562V9.85547Z" fill="black"/>
<path d="M13.6964 9.85547H11.7764V11.7755H13.6964V9.85547Z" fill="black"/>
<path d="M17.5357 9.85547H15.6157V11.7755H17.5357V9.85547Z" fill="black"/>
<path d="M21.3761 9.85547H19.4561V11.7755H21.3761V9.85547Z" fill="black"/>
<path d="M27.1361 9.85547H25.2161V11.7755H27.1361V9.85547Z" fill="black"/>
<path d="M30.9759 9.85547H29.0559V11.7755H30.9759V9.85547Z" fill="black"/>
<path d="M34.8162 9.85547H32.8962V11.7755H34.8162V9.85547Z" fill="black"/>
<path d="M36.7359 9.85547H34.8159V11.7755H36.7359V9.85547Z" fill="black"/>
<path d="M44.4158 9.85547H42.4958V11.7755H44.4158V9.85547Z" fill="black"/>
<path d="M46.3363 9.85547H44.4163V11.7755H46.3363V9.85547Z" fill="black"/>
<path d="M48.2559 9.85547H46.3359V11.7755H48.2559V9.85547Z" fill="black"/>
<path d="M52.096 9.85547H50.176V11.7755H52.096V9.85547Z" fill="black"/>
<path d="M63.616 9.85547H61.696V11.7755H63.616V9.85547Z" fill="black"/>
<path d="M2.17562 11.7754H0.255615V13.6954H2.17562V11.7754Z" fill="black"/>
<path d="M4.09603 11.7754H2.17603V13.6954H4.09603V11.7754Z" fill="black"/>
<path d="M6.01595 11.7754H4.09595V13.6954H6.01595V11.7754Z" fill="black"/>
<path d="M7.93636 11.7754H6.01636V13.6954H7.93636V11.7754Z" fill="black"/>
<path d="M9.85604 11.7754H7.93604V13.6954H9.85604V11.7754Z" fill="black"/>
<path d="M11.776 11.7754H9.85596V13.6954H11.776V11.7754Z" fill="black"/>
<path d="M13.6964 11.7754H11.7764V13.6954H13.6964V11.7754Z" fill="black"/>
<path d="M17.5357 11.7754H15.6157V13.6954H17.5357V11.7754Z" fill="black"/>
<path d="M21.3761 11.7754H19.4561V13.6954H21.3761V11.7754Z" fill="black"/>
<path d="M25.2159 11.7754H23.2959V13.6954H25.2159V11.7754Z" fill="black"/>
<path d="M29.0557 11.7754H27.1357V13.6954H29.0557V11.7754Z" fill="black"/>
<path d="M32.8961 11.7754H30.9761V13.6954H32.8961V11.7754Z" fill="black"/>
<path d="M36.7359 11.7754H34.8159V13.6954H36.7359V11.7754Z" fill="black"/>
<path d="M40.5762 11.7754H38.6562V13.6954H40.5762V11.7754Z" fill="black"/>
<path d="M44.4158 11.7754H42.4958V13.6954H44.4158V11.7754Z" fill="black"/>
<path d="M48.2559 11.7754H46.3359V13.6954H48.2559V11.7754Z" fill="black"/>
<path d="M52.096 11.7754H50.176V13.6954H52.096V11.7754Z" fill="black"/>
<path d="M54.0159 11.7754H52.0959V13.6954H54.0159V11.7754Z" fill="black"/>
<path d="M55.9364 11.7754H54.0164V13.6954H55.9364V11.7754Z" fill="black"/>
<path d="M57.856 11.7754H55.936V13.6954H57.856V11.7754Z" fill="black"/>
<path d="M59.776 11.7754H57.856V13.6954H59.776V11.7754Z" fill="black"/>
<path d="M61.6964 11.7754H59.7764V13.6954H61.6964V11.7754Z" fill="black"/>
<path d="M63.616 11.7754H61.696V13.6954H63.616V11.7754Z" fill="black"/>
<path d="M17.5357 13.6953H15.6157V15.6153H17.5357V13.6953Z" fill="black"/>
<path d="M19.4561 13.6953H17.5361V15.6153H19.4561V13.6953Z" fill="black"/>
<path d="M21.3761 13.6953H19.4561V15.6153H21.3761V13.6953Z" fill="black"/>
<path d="M23.2957 13.6953H21.3757V15.6153H23.2957V13.6953Z" fill="black"/>
<path d="M32.8961 13.6953H30.9761V15.6153H32.8961V13.6953Z" fill="black"/>
<path d="M36.7359 13.6953H34.8159V15.6153H36.7359V13.6953Z" fill="black"/>
<path d="M46.3363 13.6953H44.4163V15.6153H46.3363V13.6953Z" fill="black"/>
<path d="M6.01595 15.6152H4.09595V17.5352H6.01595V15.6152Z" fill="black"/>
<path d="M7.93636 15.6152H6.01636V17.5352H7.93636V15.6152Z" fill="black"/>
<path d="M9.85604 15.6152H7.93604V17.5352H9.85604V15.6152Z" fill="black"/>
<path d="M13.6964 15.6152H11.7764V17.5352H13.6964V15.6152Z" fill="black"/>
<path d="M17.5357 15.6152H15.6157V17.5352H17.5357V15.6152Z" fill="black"/>
<path d="M19.4561 15.6152H17.5361V17.5352H19.4561V15.6152Z" fill="black"/>
<path d="M21.3761 15.6152H19.4561V17.5352H21.3761V15.6152Z" fill="black"/>
<path d="M23.2957 15.6152H21.3757V17.5352H23.2957V15.6152Z" fill="black"/>
<path d="M29.0557 15.6152H27.1357V17.5352H29.0557V15.6152Z" fill="black"/>
<path d="M36.7359 15.6152H34.8159V17.5352H36.7359V15.6152Z" fill="black"/>
<path d="M38.6558 15.6152H36.7358V17.5352H38.6558V15.6152Z" fill="black"/>
<path d="M42.4959 15.6152H40.5759V17.5352H42.4959V15.6152Z" fill="black"/>
<path d="M44.4158 15.6152H42.4958V17.5352H44.4158V15.6152Z" fill="black"/>
<path d="M46.3363 15.6152H44.4163V17.5352H46.3363V15.6152Z" fill="black"/>
<path d="M50.1756 15.6152H48.2556V17.5352H50.1756V15.6152Z" fill="black"/>
<path d="M52.096 15.6152H50.176V17.5352H52.096V15.6152Z" fill="black"/>
<path d="M54.0159 15.6152H52.0959V17.5352H54.0159V15.6152Z" fill="black"/>
<path d="M59.776 15.6152H57.856V17.5352H59.776V15.6152Z" fill="black"/>
<path d="M61.6964 15.6152H59.7764V17.5352H61.6964V15.6152Z" fill="black"/>
<path d="M63.616 15.6152H61.696V17.5352H63.616V15.6152Z" fill="black"/>
<path d="M15.616 17.5352H13.696V19.4552H15.616V17.5352Z" fill="black"/>
<path d="M19.4561 17.5352H17.5361V19.4552H19.4561V17.5352Z" fill="black"/>
<path d="M23.2957 17.5352H21.3757V19.4552H23.2957V17.5352Z" fill="black"/>
<path d="M25.2159 17.5352H23.2959V19.4552H25.2159V17.5352Z" fill="black"/>
<path d="M30.9759 17.5352H29.0559V19.4552H30.9759V17.5352Z" fill="black"/>
<path d="M36.7359 17.5352H34.8159V19.4552H36.7359V17.5352Z" fill="black"/>
<path d="M40.5762 17.5352H38.6562V19.4552H40.5762V17.5352Z" fill="black"/>
<path d="M42.4959 17.5352H40.5759V19.4552H42.4959V17.5352Z" fill="black"/>
<path d="M44.4158 17.5352H42.4958V19.4552H44.4158V17.5352Z" fill="black"/>
<path d="M46.3363 17.5352H44.4163V19.4552H46.3363V17.5352Z" fill="black"/>
<path d="M57.856 17.5352H55.936V19.4552H57.856V17.5352Z" fill="black"/>
<path d="M59.776 17.5352H57.856V19.4552H59.776V17.5352Z" fill="black"/>
<path d="M61.6964 17.5352H59.7764V19.4552H61.6964V17.5352Z" fill="black"/>
<path d="M63.616 17.5352H61.696V19.4552H63.616V17.5352Z" fill="black"/>
<path d="M6.01595 19.4551H4.09595V21.3751H6.01595V19.4551Z" fill="black"/>
<path d="M11.776 19.4551H9.85596V21.3751H11.776V19.4551Z" fill="black"/>
<path d="M13.6964 19.4551H11.7764V21.3751H13.6964V19.4551Z" fill="black"/>
<path d="M19.4561 19.4551H17.5361V21.3751H19.4561V19.4551Z" fill="black"/>
<path d="M27.1361 19.4551H25.2161V21.3751H27.1361V19.4551Z" fill="black"/>
<path d="M30.9759 19.4551H29.0559V21.3751H30.9759V19.4551Z" fill="black"/>
<path d="M32.8961 19.4551H30.9761V21.3751H32.8961V19.4551Z" fill="black"/>
<path d="M34.8162 19.4551H32.8962V21.3751H34.8162V19.4551Z" fill="black"/>
<path d="M38.6558 19.4551H36.7358V21.3751H38.6558V19.4551Z" fill="black"/>
<path d="M42.4959 19.4551H40.5759V21.3751H42.4959V19.4551Z" fill="black"/>
<path d="M46.3363 19.4551H44.4163V21.3751H46.3363V19.4551Z" fill="black"/>
<path d="M48.2559 19.4551H46.3359V21.3751H48.2559V19.4551Z" fill="black"/>
<path d="M50.1756 19.4551H48.2556V21.3751H50.1756V19.4551Z" fill="black"/>
<path d="M55.9364 19.4551H54.0164V21.3751H55.9364V19.4551Z" fill="black"/>
<path d="M57.856 19.4551H55.936V21.3751H57.856V19.4551Z" fill="black"/>
<path d="M61.6964 19.4551H59.7764V21.3751H61.6964V19.4551Z" fill="black"/>
<path d="M63.616 19.4551H61.696V21.3751H63.616V19.4551Z" fill="black"/>
<path d="M2.17562 21.375H0.255615V23.295H2.17562V21.375Z" fill="black"/>
<path d="M4.09603 21.377H2.17603V23.297H4.09603V21.377Z" fill="black"/>
<path d="M6.01595 21.377H4.09595V23.297H6.01595V21.377Z" fill="black"/>
<path d="M9.85604 21.377H7.93604V23.297H9.85604V21.377Z" fill="black"/>
<path d="M11.776 21.377H9.85596V23.297H11.776V21.377Z" fill="black"/>
<path d="M21.3761 21.377H19.4561V23.297H21.3761V21.377Z" fill="black"/>
<path d="M25.2159 21.377H23.2959V23.297H25.2159V21.377Z" fill="black"/>
<path d="M32.8961 21.377H30.9761V23.297H32.8961V21.377Z" fill="black"/>
<path d="M34.8162 21.375H32.8962V23.295H34.8162V21.375Z" fill="black"/>
<path d="M40.5762 21.375H38.6562V23.295H40.5762V21.375Z" fill="black"/>
<path d="M42.4959 21.377H40.5759V23.297H42.4959V21.377Z" fill="black"/>
<path d="M44.4158 21.375H42.4958V23.295H44.4158V21.375Z" fill="black"/>
<path d="M46.3363 21.375H44.4163V23.295H46.3363V21.375Z" fill="black"/>
<path d="M48.2559 21.377H46.3359V23.297H48.2559V21.377Z" fill="black"/>
<path d="M50.1756 21.375H48.2556V23.295H50.1756V21.375Z" fill="black"/>
<path d="M52.096 21.377H50.176V23.297H52.096V21.377Z" fill="black"/>
<path d="M63.616 21.377H61.696V23.297H63.616V21.377Z" fill="black"/>
<path d="M2.17562 23.2969H0.255615V25.2169H2.17562V23.2969Z" fill="black"/>
<path d="M7.93636 23.2969H6.01636V25.2169H7.93636V23.2969Z" fill="black"/>
<path d="M13.6964 23.2969H11.7764V25.2169H13.6964V23.2969Z" fill="black"/>
<path d="M15.616 23.2969H13.696V25.2169H15.616V23.2969Z" fill="black"/>
<path d="M17.5357 23.2969H15.6157V25.2169H17.5357V23.2969Z" fill="black"/>
<path d="M21.3761 23.2969H19.4561V25.2169H21.3761V23.2969Z" fill="black"/>
<path d="M25.2159 23.2969H23.2959V25.2169H25.2159V23.2969Z" fill="black"/>
<path d="M29.0557 23.2969H27.1357V25.2169H29.0557V23.2969Z" fill="black"/>
<path d="M30.9759 23.2969H29.0559V25.2169H30.9759V23.2969Z" fill="black"/>
<path d="M34.8162 23.2969H32.8962V25.2169H34.8162V23.2969Z" fill="black"/>
<path d="M42.4959 23.2969H40.5759V25.2169H42.4959V23.2969Z" fill="black"/>
<path d="M48.2559 23.2969H46.3359V25.2169H48.2559V23.2969Z" fill="black"/>
<path d="M57.856 23.2969H55.936V25.2169H57.856V23.2969Z" fill="black"/>
<path d="M59.776 23.2969H57.856V25.2169H59.776V23.2969Z" fill="black"/>
<path d="M4.09603 25.2168H2.17603V27.1368H4.09603V25.2168Z" fill="black"/>
<path d="M6.01595 25.2168H4.09595V27.1368H6.01595V25.2168Z" fill="black"/>
<path d="M7.93636 25.2168H6.01636V27.1368H7.93636V25.2168Z" fill="black"/>
<path d="M19.4561 25.2168H17.5361V27.1368H19.4561V25.2168Z" fill="black"/>
<path d="M27.1361 25.2168H25.2161V27.1368H27.1361V25.2168Z" fill="black"/>
<path d="M36.7359 25.2168H34.8159V27.1368H36.7359V25.2168Z" fill="black"/>
<path d="M38.6558 25.2168H36.7358V27.1368H38.6558V25.2168Z" fill="black"/>
<path d="M42.4959 25.2168H40.5759V27.1368H42.4959V25.2168Z" fill="black"/>
<path d="M44.4158 25.2168H42.4958V27.1368H44.4158V25.2168Z" fill="black"/>
<path d="M46.3363 25.2168H44.4163V27.1368H46.3363V25.2168Z" fill="black"/>
<path d="M52.096 25.2168H50.176V27.1368H52.096V25.2168Z" fill="black"/>
<path d="M57.856 25.2168H55.936V27.1368H57.856V25.2168Z" fill="black"/>
<path d="M59.776 25.2168H57.856V27.1368H59.776V25.2168Z" fill="black"/>
<path d="M2.17562 27.1367H0.255615V29.0567H2.17562V27.1367Z" fill="black"/>
<path d="M4.09603 27.1367H2.17603V29.0567H4.09603V27.1367Z" fill="black"/>
<path d="M6.01595 27.1367H4.09595V29.0567H6.01595V27.1367Z" fill="black"/>
<path d="M7.93636 27.1367H6.01636V29.0567H7.93636V27.1367Z" fill="black"/>
<path d="M9.85604 27.1367H7.93604V29.0567H9.85604V27.1367Z" fill="black"/>
<path d="M13.6964 27.1367H11.7764V29.0567H13.6964V27.1367Z" fill="black"/>
<path d="M15.616 27.1367H13.696V29.0567H15.616V27.1367Z" fill="black"/>
<path d="M19.4561 27.1367H17.5361V29.0567H19.4561V27.1367Z" fill="black"/>
<path d="M23.2957 27.1367H21.3757V29.0567H23.2957V27.1367Z" fill="black"/>
<path d="M25.2159 27.1367H23.2959V29.0567H25.2159V27.1367Z" fill="black"/>
<path d="M27.1361 27.1367H25.2161V29.0567H27.1361V27.1367Z" fill="black"/>
<path d="M30.9759 27.1367H29.0559V29.0567H30.9759V27.1367Z" fill="black"/>
<path d="M36.7359 27.1367H34.8159V29.0567H36.7359V27.1367Z" fill="black"/>
<path d="M38.6558 27.1367H36.7358V29.0567H38.6558V27.1367Z" fill="black"/>
<path d="M46.3363 27.1367H44.4163V29.0567H46.3363V27.1367Z" fill="black"/>
<path d="M48.2559 27.1367H46.3359V29.0567H48.2559V27.1367Z" fill="black"/>
<path d="M50.1756 27.1367H48.2556V29.0567H50.1756V27.1367Z" fill="black"/>
<path d="M55.9364 27.1367H54.0164V29.0567H55.9364V27.1367Z" fill="black"/>
<path d="M57.856 27.1367H55.936V29.0567H57.856V27.1367Z" fill="black"/>
<path d="M61.6964 27.1367H59.7764V29.0567H61.6964V27.1367Z" fill="black"/>
<path d="M2.17562 29.0566H0.255615V30.9766H2.17562V29.0566Z" fill="black"/>
<path d="M6.01595 29.0566H4.09595V30.9766H6.01595V29.0566Z" fill="black"/>
<path d="M7.93636 29.0566H6.01636V30.9766H7.93636V29.0566Z" fill="black"/>
<path d="M9.85604 29.0566H7.93604V30.9766H9.85604V29.0566Z" fill="black"/>
<path d="M11.776 29.0566H9.85596V30.9766H11.776V29.0566Z" fill="black"/>
<path d="M29.0557 29.0566H27.1357V30.9766H29.0557V29.0566Z" fill="black"/>
<path d="M36.7359 29.0566H34.8159V30.9766H36.7359V29.0566Z" fill="black"/>
<path d="M40.5762 29.0566H38.6562V30.9766H40.5762V29.0566Z" fill="black"/>
<path d="M44.4158 29.0566H42.4958V30.9766H44.4158V29.0566Z" fill="black"/>
<path d="M46.3363 29.0566H44.4163V30.9766H46.3363V29.0566Z" fill="black"/>
<path d="M52.096 29.0566H50.176V30.9766H52.096V29.0566Z" fill="black"/>
<path d="M54.0159 29.0566H52.0959V30.9766H54.0159V29.0566Z" fill="black"/>
<path d="M59.776 29.0566H57.856V30.9766H59.776V29.0566Z" fill="black"/>
<path d="M63.616 29.0566H61.696V30.9766H63.616V29.0566Z" fill="black"/>
<path d="M4.09603 30.9766H2.17603V32.8966H4.09603V30.9766Z" fill="black"/>
<path d="M9.85604 30.9766H7.93604V32.8966H9.85604V30.9766Z" fill="black"/>
<path d="M13.6964 30.9766H11.7764V32.8966H13.6964V30.9766Z" fill="black"/>
<path d="M15.616 30.9766H13.696V32.8966H15.616V30.9766Z" fill="black"/>
<path d="M21.3761 30.9766H19.4561V32.8966H21.3761V30.9766Z" fill="black"/>
<path d="M23.2957 30.9766H21.3757V32.8966H23.2957V30.9766Z" fill="black"/>
<path d="M29.0557 30.9766H27.1357V32.8966H29.0557V30.9766Z" fill="black"/>
<path d="M30.9759 30.9766H29.0559V32.8966H30.9759V30.9766Z" fill="black"/>
<path d="M40.5762 30.9766H38.6562V32.8966H40.5762V30.9766Z" fill="black"/>
<path d="M48.2559 30.9766H46.3359V32.8966H48.2559V30.9766Z" fill="black"/>
<path d="M50.1756 30.9766H48.2556V32.8966H50.1756V30.9766Z" fill="black"/>
<path d="M52.096 30.9766H50.176V32.8966H52.096V30.9766Z" fill="black"/>
<path d="M55.9364 30.9766H54.0164V32.8966H55.9364V30.9766Z" fill="black"/>
<path d="M59.776 30.9766H57.856V32.8966H59.776V30.9766Z" fill="black"/>
<path d="M63.616 30.9766H61.696V32.8966H63.616V30.9766Z" fill="black"/>
<path d="M2.17562 32.8965H0.255615V34.8165H2.17562V32.8965Z" fill="black"/>
<path d="M4.09603 32.8965H2.17603V34.8165H4.09603V32.8965Z" fill="black"/>
<path d="M9.85604 32.8965H7.93604V34.8165H9.85604V32.8965Z" fill="black"/>
<path d="M11.776 32.8965H9.85596V34.8165H11.776V32.8965Z" fill="black"/>
<path d="M15.616 32.8965H13.696V34.8165H15.616V32.8965Z" fill="black"/>
<path d="M17.5357 32.8965H15.6157V34.8165H17.5357V32.8965Z" fill="black"/>
<path d="M19.4561 32.8965H17.5361V34.8165H19.4561V32.8965Z" fill="black"/>
<path d="M29.0557 32.8965H27.1357V34.8165H29.0557V32.8965Z" fill="black"/>
<path d="M30.9759 32.8965H29.0559V34.8165H30.9759V32.8965Z" fill="black"/>
<path d="M36.7359 32.8965H34.8159V34.8165H36.7359V32.8965Z" fill="black"/>
<path d="M38.6558 32.8965H36.7358V34.8165H38.6558V32.8965Z" fill="black"/>
<path d="M40.5762 32.8965H38.6562V34.8165H40.5762V32.8965Z" fill="black"/>
<path d="M42.4959 32.8965H40.5759V34.8165H42.4959V32.8965Z" fill="black"/>
<path d="M48.2559 32.8965H46.3359V34.8165H48.2559V32.8965Z" fill="black"/>
<path d="M50.1756 32.8965H48.2556V34.8165H50.1756V32.8965Z" fill="black"/>
<path d="M52.096 32.8965H50.176V34.8165H52.096V32.8965Z" fill="black"/>
<path d="M54.0159 32.8965H52.0959V34.8165H54.0159V32.8965Z" fill="black"/>
<path d="M59.776 32.8965H57.856V34.8165H59.776V32.8965Z" fill="black"/>
<path d="M2.17562 34.8164H0.255615V36.7364H2.17562V34.8164Z" fill="black"/>
<path d="M6.01595 34.8164H4.09595V36.7364H6.01595V34.8164Z" fill="black"/>
<path d="M7.93636 34.8164H6.01636V36.7364H7.93636V34.8164Z" fill="black"/>
<path d="M9.85604 34.8164H7.93604V36.7364H9.85604V34.8164Z" fill="black"/>
<path d="M13.6964 34.8164H11.7764V36.7364H13.6964V34.8164Z" fill="black"/>
<path d="M17.5357 34.8164H15.6157V36.7364H17.5357V34.8164Z" fill="black"/>
<path d="M25.2159 34.8164H23.2959V36.7364H25.2159V34.8164Z" fill="black"/>
<path d="M29.0557 34.8164H27.1357V36.7364H29.0557V34.8164Z" fill="black"/>
<path d="M30.9759 34.8164H29.0559V36.7364H30.9759V34.8164Z" fill="black"/>
<path d="M32.8961 34.8164H30.9761V36.7364H32.8961V34.8164Z" fill="black"/>
<path d="M38.6558 34.8164H36.7358V36.7364H38.6558V34.8164Z" fill="black"/>
<path d="M40.5762 34.8164H38.6562V36.7364H40.5762V34.8164Z" fill="black"/>
<path d="M44.4158 34.8164H42.4958V36.7364H44.4158V34.8164Z" fill="black"/>
<path d="M54.0159 34.8164H52.0959V36.7364H54.0159V34.8164Z" fill="black"/>
<path d="M55.9364 34.8164H54.0164V36.7364H55.9364V34.8164Z" fill="black"/>
<path d="M57.856 34.8164H55.936V36.7364H57.856V34.8164Z" fill="black"/>
<path d="M59.776 34.8164H57.856V36.7364H59.776V34.8164Z" fill="black"/>
<path d="M61.6964 34.8164H59.7764V36.7364H61.6964V34.8164Z" fill="black"/>
<path d="M2.17562 36.7363H0.255615V38.6563H2.17562V36.7363Z" fill="black"/>
<path d="M6.01595 36.7363H4.09595V38.6563H6.01595V36.7363Z" fill="black"/>
<path d="M21.3761 36.7363H19.4561V38.6563H21.3761V36.7363Z" fill="black"/>
<path d="M23.2957 36.7363H21.3757V38.6563H23.2957V36.7363Z" fill="black"/>
<path d="M29.0557 36.7363H27.1357V38.6563H29.0557V36.7363Z" fill="black"/>
<path d="M36.7359 36.7363H34.8159V38.6563H36.7359V36.7363Z" fill="black"/>
<path d="M38.6558 36.7363H36.7358V38.6563H38.6558V36.7363Z" fill="black"/>
<path d="M42.4959 36.7363H40.5759V38.6563H42.4959V36.7363Z" fill="black"/>
<path d="M44.4158 36.7363H42.4958V38.6563H44.4158V36.7363Z" fill="black"/>
<path d="M46.3363 36.7363H44.4163V38.6563H46.3363V36.7363Z" fill="black"/>
<path d="M50.1756 36.7363H48.2556V38.6563H50.1756V36.7363Z" fill="black"/>
<path d="M52.096 36.7363H50.176V38.6563H52.096V36.7363Z" fill="black"/>
<path d="M57.856 36.7363H55.936V38.6563H57.856V36.7363Z" fill="black"/>
<path d="M63.616 36.7363H61.696V38.6563H63.616V36.7363Z" fill="black"/>
<path d="M4.09603 38.6562H2.17603V40.5762H4.09603V38.6562Z" fill="black"/>
<path d="M6.01595 38.6562H4.09595V40.5762H6.01595V38.6562Z" fill="black"/>
<path d="M9.85604 38.6562H7.93604V40.5762H9.85604V38.6562Z" fill="black"/>
<path d="M11.776 38.6562H9.85596V40.5762H11.776V38.6562Z" fill="black"/>
<path d="M13.6964 38.6562H11.7764V40.5763H13.6964V38.6562Z" fill="black"/>
<path d="M17.5357 38.6562H15.6157V40.5763H17.5357V38.6562Z" fill="black"/>
<path d="M21.3761 38.6562H19.4561V40.5762H21.3761V38.6562Z" fill="black"/>
<path d="M23.2957 38.6562H21.3757V40.5763H23.2957V38.6562Z" fill="black"/>
<path d="M27.1361 38.6562H25.2161V40.5762H27.1361V38.6562Z" fill="black"/>
<path d="M29.0557 38.6562H27.1357V40.5763H29.0557V38.6562Z" fill="black"/>
<path d="M30.9759 38.6562H29.0559V40.5762H30.9759V38.6562Z" fill="black"/>
<path d="M40.5762 38.6562H38.6562V40.5763H40.5762V38.6562Z" fill="black"/>
<path d="M42.4959 38.6562H40.5759V40.5762H42.4959V38.6562Z" fill="black"/>
<path d="M48.2559 38.6562H46.3359V40.5762H48.2559V38.6562Z" fill="black"/>
<path d="M50.1756 38.6562H48.2556V40.5763H50.1756V38.6562Z" fill="black"/>
<path d="M55.9364 38.6562H54.0164V40.5763H55.9364V38.6562Z" fill="black"/>
<path d="M57.856 38.6562H55.936V40.5762H57.856V38.6562Z" fill="black"/>
<path d="M59.776 38.6562H57.856V40.5762H59.776V38.6562Z" fill="black"/>
<path d="M61.6964 38.6562H59.7764V40.5763H61.6964V38.6562Z" fill="black"/>
<path d="M2.17562 40.5762H0.255615V42.4962H2.17562V40.5762Z" fill="black"/>
<path d="M4.09603 40.5762H2.17603V42.4962H4.09603V40.5762Z" fill="black"/>
<path d="M6.01595 40.5762H4.09595V42.4962H6.01595V40.5762Z" fill="black"/>
<path d="M11.776 40.5762H9.85596V42.4962H11.776V40.5762Z" fill="black"/>
<path d="M15.616 40.5762H13.696V42.4962H15.616V40.5762Z" fill="black"/>
<path d="M19.4561 40.5762H17.5361V42.4962H19.4561V40.5762Z" fill="black"/>
<path d="M21.3761 40.5762H19.4561V42.4962H21.3761V40.5762Z" fill="black"/>
<path d="M23.2957 40.5762H21.3757V42.4962H23.2957V40.5762Z" fill="black"/>
<path d="M25.2159 40.5762H23.2959V42.4962H25.2159V40.5762Z" fill="black"/>
<path d="M27.1361 40.5762H25.2161V42.4962H27.1361V40.5762Z" fill="black"/>
<path d="M30.9759 40.5762H29.0559V42.4962H30.9759V40.5762Z" fill="black"/>
<path d="M32.8961 40.5762H30.9761V42.4962H32.8961V40.5762Z" fill="black"/>
<path d="M34.8162 40.5762H32.8962V42.4962H34.8162V40.5762Z" fill="black"/>
<path d="M36.7359 40.5762H34.8159V42.4962H36.7359V40.5762Z" fill="black"/>
<path d="M40.5762 40.5762H38.6562V42.4962H40.5762V40.5762Z" fill="black"/>
<path d="M42.4959 40.5762H40.5759V42.4962H42.4959V40.5762Z" fill="black"/>
<path d="M48.2559 40.5762H46.3359V42.4962H48.2559V40.5762Z" fill="black"/>
<path d="M50.1756 40.5762H48.2556V42.4962H50.1756V40.5762Z" fill="black"/>
<path d="M52.096 40.5762H50.176V42.4962H52.096V40.5762Z" fill="black"/>
<path d="M55.9364 40.5762H54.0164V42.4962H55.9364V40.5762Z" fill="black"/>
<path d="M57.856 40.5762H55.936V42.4962H57.856V40.5762Z" fill="black"/>
<path d="M59.776 40.5762H57.856V42.4962H59.776V40.5762Z" fill="black"/>
<path d="M61.6964 40.5762H59.7764V42.4962H61.6964V40.5762Z" fill="black"/>
<path d="M2.17562 42.4961H0.255615V44.4161H2.17562V42.4961Z" fill="black"/>
<path d="M7.93636 42.4961H6.01636V44.4161H7.93636V42.4961Z" fill="black"/>
<path d="M9.85604 42.4961H7.93604V44.4161H9.85604V42.4961Z" fill="black"/>
<path d="M13.6964 42.4961H11.7764V44.4161H13.6964V42.4961Z" fill="black"/>
<path d="M17.5357 42.4961H15.6157V44.4161H17.5357V42.4961Z" fill="black"/>
<path d="M21.3761 42.4961H19.4561V44.4161H21.3761V42.4961Z" fill="black"/>
<path d="M25.2159 42.4961H23.2959V44.4161H25.2159V42.4961Z" fill="black"/>
<path d="M27.1361 42.4961H25.2161V44.4161H27.1361V42.4961Z" fill="black"/>
<path d="M29.0557 42.4961H27.1357V44.4161H29.0557V42.4961Z" fill="black"/>
<path d="M30.9759 42.4961H29.0559V44.4161H30.9759V42.4961Z" fill="black"/>
<path d="M38.6558 42.4961H36.7358V44.4161H38.6558V42.4961Z" fill="black"/>
<path d="M48.2559 42.4961H46.3359V44.4161H48.2559V42.4961Z" fill="black"/>
<path d="M50.1756 42.4961H48.2556V44.4161H50.1756V42.4961Z" fill="black"/>
<path d="M54.0159 42.4961H52.0959V44.4161H54.0159V42.4961Z" fill="black"/>
<path d="M55.9364 42.4961H54.0164V44.4161H55.9364V42.4961Z" fill="black"/>
<path d="M2.17562 44.416H0.255615V46.336H2.17562V44.416Z" fill="black"/>
<path d="M15.616 44.416H13.696V46.336H15.616V44.416Z" fill="black"/>
<path d="M17.5357 44.416H15.6157V46.336H17.5357V44.416Z" fill="black"/>
<path d="M25.2159 44.416H23.2959V46.336H25.2159V44.416Z" fill="black"/>
<path d="M29.0557 44.416H27.1357V46.336H29.0557V44.416Z" fill="black"/>
<path d="M36.7359 44.416H34.8159V46.336H36.7359V44.416Z" fill="black"/>
<path d="M40.5762 44.416H38.6562V46.336H40.5762V44.416Z" fill="black"/>
<path d="M48.2559 44.416H46.3359V46.336H48.2559V44.416Z" fill="black"/>
<path d="M50.1756 44.416H48.2556V46.336H50.1756V44.416Z" fill="black"/>
<path d="M52.096 44.416H50.176V46.336H52.096V44.416Z" fill="black"/>
<path d="M63.616 44.416H61.696V46.336H63.616V44.416Z" fill="black"/>
<path d="M2.17562 46.3359H0.255615V48.2559H2.17562V46.3359Z" fill="black"/>
<path d="M7.93636 46.3359H6.01636V48.2559H7.93636V46.3359Z" fill="black"/>
<path d="M11.776 46.3359H9.85596V48.2559H11.776V46.3359Z" fill="black"/>
<path d="M13.6964 46.3359H11.7764V48.2559H13.6964V46.3359Z" fill="black"/>
<path d="M17.5357 46.3359H15.6157V48.2559H17.5357V46.3359Z" fill="black"/>
<path d="M29.0557 46.3359H27.1357V48.2559H29.0557V46.3359Z" fill="black"/>
<path d="M30.9759 46.3359H29.0559V48.2559H30.9759V46.3359Z" fill="black"/>
<path d="M34.8162 46.3359H32.8962V48.2559H34.8162V46.3359Z" fill="black"/>
<path d="M36.7359 46.3359H34.8159V48.2559H36.7359V46.3359Z" fill="black"/>
<path d="M44.4158 46.3359H42.4958V48.2559H44.4158V46.3359Z" fill="black"/>
<path d="M48.2559 46.3359H46.3359V48.2559H48.2559V46.3359Z" fill="black"/>
<path d="M50.1756 46.3359H48.2556V48.2559H50.1756V46.3359Z" fill="black"/>
<path d="M52.096 46.3359H50.176V48.2559H52.096V46.3359Z" fill="black"/>
<path d="M54.0159 46.3359H52.0959V48.2559H54.0159V46.3359Z" fill="black"/>
<path d="M55.9364 46.3359H54.0164V48.2559H55.9364V46.3359Z" fill="black"/>
<path d="M57.856 46.3359H55.936V48.2559H57.856V46.3359Z" fill="black"/>
<path d="M61.6964 46.3359H59.7764V48.2559H61.6964V46.3359Z" fill="black"/>
<path d="M17.5357 48.2559H15.6157V50.1759H17.5357V48.2559Z" fill="black"/>
<path d="M23.2957 48.2559H21.3757V50.1759H23.2957V48.2559Z" fill="black"/>
<path d="M25.2159 48.2559H23.2959V50.1759H25.2159V48.2559Z" fill="black"/>
<path d="M27.1361 48.2559H25.2161V50.1759H27.1361V48.2559Z" fill="black"/>
<path d="M29.0557 48.2559H27.1357V50.1759H29.0557V48.2559Z" fill="black"/>
<path d="M34.8162 48.2559H32.8962V50.1759H34.8162V48.2559Z" fill="black"/>
<path d="M36.7359 48.2559H34.8159V50.1759H36.7359V48.2559Z" fill="black"/>
<path d="M38.6558 48.2559H36.7358V50.1759H38.6558V48.2559Z" fill="black"/>
<path d="M40.5762 48.2559H38.6562V50.1759H40.5762V48.2559Z" fill="black"/>
<path d="M44.4158 48.2559H42.4958V50.1759H44.4158V48.2559Z" fill="black"/>
<path d="M46.3363 48.2559H44.4163V50.1759H46.3363V48.2559Z" fill="black"/>
<path d="M48.2559 48.2559H46.3359V50.1759H48.2559V48.2559Z" fill="black"/>
<path d="M55.9364 48.2559H54.0164V50.1759H55.9364V48.2559Z" fill="black"/>
<path d="M59.776 48.2559H57.856V50.1759H59.776V48.2559Z" fill="black"/>
<path d="M61.6964 48.2559H59.7764V50.1759H61.6964V48.2559Z" fill="black"/>
<path d="M63.616 48.2559H61.696V50.1759H63.616V48.2559Z" fill="black"/>
<path d="M2.17562 50.1758H0.255615V52.0958H2.17562V50.1758Z" fill="black"/>
<path d="M4.09603 50.1758H2.17603V52.0958H4.09603V50.1758Z" fill="black"/>
<path d="M6.01595 50.1758H4.09595V52.0958H6.01595V50.1758Z" fill="black"/>
<path d="M7.93636 50.1758H6.01636V52.0958H7.93636V50.1758Z" fill="black"/>
<path d="M9.85604 50.1758H7.93604V52.0958H9.85604V50.1758Z" fill="black"/>
<path d="M11.776 50.1758H9.85596V52.0958H11.776V50.1758Z" fill="black"/>
<path d="M13.6964 50.1758H11.7764V52.0958H13.6964V50.1758Z" fill="black"/>
<path d="M19.4561 50.1758H17.5361V52.0958H19.4561V50.1758Z" fill="black"/>
<path d="M21.3761 50.1758H19.4561V52.0958H21.3761V50.1758Z" fill="black"/>
<path d="M23.2957 50.1758H21.3757V52.0958H23.2957V50.1758Z" fill="black"/>
<path d="M30.9759 50.1758H29.0559V52.0958H30.9759V50.1758Z" fill="black"/>
<path d="M44.4158 50.1758H42.4958V52.0958H44.4158V50.1758Z" fill="black"/>
<path d="M48.2559 50.1758H46.3359V52.0958H48.2559V50.1758Z" fill="black"/>
<path d="M52.096 50.1758H50.176V52.0958H52.096V50.1758Z" fill="black"/>
<path d="M55.9364 50.1758H54.0164V52.0958H55.9364V50.1758Z" fill="black"/>
<path d="M61.6964 50.1758H59.7764V52.0958H61.6964V50.1758Z" fill="black"/>
<path d="M63.616 50.1758H61.696V52.0958H63.616V50.1758Z" fill="black"/>
<path d="M2.17562 52.0957H0.255615V54.0157H2.17562V52.0957Z" fill="black"/>
<path d="M13.6964 52.0957H11.7764V54.0157H13.6964V52.0957Z" fill="black"/>
<path d="M21.3761 52.0957H19.4561V54.0157H21.3761V52.0957Z" fill="black"/>
<path d="M29.0557 52.0957H27.1357V54.0157H29.0557V52.0957Z" fill="black"/>
<path d="M32.8961 52.0957H30.9761V54.0157H32.8961V52.0957Z" fill="black"/>
<path d="M36.7359 52.0957H34.8159V54.0157H36.7359V52.0957Z" fill="black"/>
<path d="M46.3363 52.0957H44.4163V54.0157H46.3363V52.0957Z" fill="black"/>
<path d="M48.2559 52.0957H46.3359V54.0157H48.2559V52.0957Z" fill="black"/>
<path d="M55.9364 52.0957H54.0164V54.0157H55.9364V52.0957Z" fill="black"/>
<path d="M57.856 52.0957H55.936V54.0157H57.856V52.0957Z" fill="black"/>
<path d="M63.616 52.0957H61.696V54.0157H63.616V52.0957Z" fill="black"/>
<path d="M2.17562 54.0156H0.255615V55.9356H2.17562V54.0156Z" fill="black"/>
<path d="M6.01595 54.0156H4.09595V55.9356H6.01595V54.0156Z" fill="black"/>
<path d="M7.93636 54.0156H6.01636V55.9356H7.93636V54.0156Z" fill="black"/>
<path d="M9.85604 54.0156H7.93604V55.9356H9.85604V54.0156Z" fill="black"/>
<path d="M13.6964 54.0156H11.7764V55.9356H13.6964V54.0156Z" fill="black"/>
<path d="M17.5357 54.0156H15.6157V55.9356H17.5357V54.0156Z" fill="black"/>
<path d="M19.4561 54.0156H17.5361V55.9356H19.4561V54.0156Z" fill="black"/>
<path d="M21.3761 54.0156H19.4561V55.9356H21.3761V54.0156Z" fill="black"/>
<path d="M27.1361 54.0156H25.2161V55.9356H27.1361V54.0156Z" fill="black"/>
<path d="M30.9759 54.0156H29.0559V55.9356H30.9759V54.0156Z" fill="black"/>
<path d="M32.8961 54.0156H30.9761V55.9356H32.8961V54.0156Z" fill="black"/>
<path d="M40.5762 54.0156H38.6562V55.9356H40.5762V54.0156Z" fill="black"/>
<path d="M42.4959 54.0156H40.5759V55.9356H42.4959V54.0156Z" fill="black"/>
<path d="M44.4158 54.0156H42.4958V55.9356H44.4158V54.0156Z" fill="black"/>
<path d="M46.3363 54.0156H44.4163V55.9356H46.3363V54.0156Z" fill="black"/>
<path d="M48.2559 54.0156H46.3359V55.9356H48.2559V54.0156Z" fill="black"/>
<path d="M50.1756 54.0156H48.2556V55.9356H50.1756V54.0156Z" fill="black"/>
<path d="M52.096 54.0156H50.176V55.9356H52.096V54.0156Z" fill="black"/>
<path d="M54.0159 54.0156H52.0959V55.9356H54.0159V54.0156Z" fill="black"/>
<path d="M55.9364 54.0156H54.0164V55.9356H55.9364V54.0156Z" fill="black"/>
<path d="M2.17562 55.9355H0.255615V57.8555H2.17562V55.9355Z" fill="black"/>
<path d="M6.01595 55.9355H4.09595V57.8555H6.01595V55.9355Z" fill="black"/>
<path d="M7.93636 55.9355H6.01636V57.8555H7.93636V55.9355Z" fill="black"/>
<path d="M9.85604 55.9355H7.93604V57.8555H9.85604V55.9355Z" fill="black"/>
<path d="M13.6964 55.9355H11.7764V57.8555H13.6964V55.9355Z" fill="black"/>
<path d="M17.5357 55.9355H15.6157V57.8555H17.5357V55.9355Z" fill="black"/>
<path d="M19.4561 55.9355H17.5361V57.8555H19.4561V55.9355Z" fill="black"/>
<path d="M27.1361 55.9355H25.2161V57.8555H27.1361V55.9355Z" fill="black"/>
<path d="M29.0557 55.9355H27.1357V57.8555H29.0557V55.9355Z" fill="black"/>
<path d="M40.5762 55.9355H38.6562V57.8555H40.5762V55.9355Z" fill="black"/>
<path d="M42.4959 55.9355H40.5759V57.8555H42.4959V55.9355Z" fill="black"/>
<path d="M50.1756 55.9355H48.2556V57.8555H50.1756V55.9355Z" fill="black"/>
<path d="M54.0159 55.9355H52.0959V57.8555H54.0159V55.9355Z" fill="black"/>
<path d="M59.776 55.9355H57.856V57.8555H59.776V55.9355Z" fill="black"/>
<path d="M61.6964 55.9355H59.7764V57.8555H61.6964V55.9355Z" fill="black"/>
<path d="M2.17562 57.8555H0.255615V59.7755H2.17562V57.8555Z" fill="black"/>
<path d="M6.01595 57.8555H4.09595V59.7755H6.01595V57.8555Z" fill="black"/>
<path d="M7.93636 57.8555H6.01636V59.7755H7.93636V57.8555Z" fill="black"/>
<path d="M9.85604 57.8555H7.93604V59.7755H9.85604V57.8555Z" fill="black"/>
<path d="M13.6964 57.8555H11.7764V59.7755H13.6964V57.8555Z" fill="black"/>
<path d="M17.5357 57.8555H15.6157V59.7755H17.5357V57.8555Z" fill="black"/>
<path d="M21.3761 57.8555H19.4561V59.7755H21.3761V57.8555Z" fill="black"/>
<path d="M23.2957 57.8555H21.3757V59.7755H23.2957V57.8555Z" fill="black"/>
<path d="M27.1361 57.8555H25.2161V59.7755H27.1361V57.8555Z" fill="black"/>
<path d="M29.0557 57.8555H27.1357V59.7755H29.0557V57.8555Z" fill="black"/>
<path d="M30.9759 57.8555H29.0559V59.7755H30.9759V57.8555Z" fill="black"/>
<path d="M32.8961 57.8555H30.9761V59.7755H32.8961V57.8555Z" fill="black"/>
<path d="M34.8162 57.8555H32.8962V59.7755H34.8162V57.8555Z" fill="black"/>
<path d="M40.5762 57.8555H38.6562V59.7755H40.5762V57.8555Z" fill="black"/>
<path d="M42.4959 57.8555H40.5759V59.7755H42.4959V57.8555Z" fill="black"/>
<path d="M46.3363 57.8555H44.4163V59.7755H46.3363V57.8555Z" fill="black"/>
<path d="M48.2559 57.8555H46.3359V59.7755H48.2559V57.8555Z" fill="black"/>
<path d="M54.0159 57.8555H52.0959V59.7755H54.0159V57.8555Z" fill="black"/>
<path d="M55.9364 57.8555H54.0164V59.7755H55.9364V57.8555Z" fill="black"/>
<path d="M57.856 57.8555H55.936V59.7755H57.856V57.8555Z" fill="black"/>
<path d="M2.17562 59.7754H0.255615V61.6954H2.17562V59.7754Z" fill="black"/>
<path d="M13.6964 59.7754H11.7764V61.6954H13.6964V59.7754Z" fill="black"/>
<path d="M19.4561 59.7754H17.5361V61.6954H19.4561V59.7754Z" fill="black"/>
<path d="M21.3761 59.7754H19.4561V61.6954H21.3761V59.7754Z" fill="black"/>
<path d="M23.2957 59.7754H21.3757V61.6954H23.2957V59.7754Z" fill="black"/>
<path d="M25.2159 59.7754H23.2959V61.6954H25.2159V59.7754Z" fill="black"/>
<path d="M30.9759 59.7754H29.0559V61.6954H30.9759V59.7754Z" fill="black"/>
<path d="M32.8961 59.7754H30.9761V61.6954H32.8961V59.7754Z" fill="black"/>
<path d="M34.8162 59.7754H32.8962V61.6954H34.8162V59.7754Z" fill="black"/>
<path d="M36.7359 59.7754H34.8159V61.6954H36.7359V59.7754Z" fill="black"/>
<path d="M42.4959 59.7754H40.5759V61.6954H42.4959V59.7754Z" fill="black"/>
<path d="M44.4158 59.7754H42.4958V61.6954H44.4158V59.7754Z" fill="black"/>
<path d="M46.3363 59.7754H44.4163V61.6954H46.3363V59.7754Z" fill="black"/>
<path d="M50.1756 59.7754H48.2556V61.6954H50.1756V59.7754Z" fill="black"/>
<path d="M54.0159 59.7754H52.0959V61.6954H54.0159V59.7754Z" fill="black"/>
<path d="M55.9364 59.7754H54.0164V61.6954H55.9364V59.7754Z" fill="black"/>
<path d="M59.776 59.7754H57.856V61.6954H59.776V59.7754Z" fill="black"/>
<path d="M61.6964 59.7754H59.7764V61.6954H61.6964V59.7754Z" fill="black"/>
<path d="M63.616 59.7754H61.696V61.6954H63.616V59.7754Z" fill="black"/>
<path d="M2.17562 61.6953H0.255615V63.6153H2.17562V61.6953Z" fill="black"/>
<path d="M4.09603 61.6953H2.17603V63.6153H4.09603V61.6953Z" fill="black"/>
<path d="M6.01595 61.6953H4.09595V63.6153H6.01595V61.6953Z" fill="black"/>
<path d="M7.93636 61.6953H6.01636V63.6153H7.93636V61.6953Z" fill="black"/>
<path d="M9.85604 61.6953H7.93604V63.6153H9.85604V61.6953Z" fill="black"/>
<path d="M11.776 61.6953H9.85596V63.6153H11.776V61.6953Z" fill="black"/>
<path d="M13.6964 61.6953H11.7764V63.6153H13.6964V61.6953Z" fill="black"/>
<path d="M19.4561 61.6953H17.5361V63.6153H19.4561V61.6953Z" fill="black"/>
<path d="M23.2957 61.6953H21.3757V63.6153H23.2957V61.6953Z" fill="black"/>
<path d="M30.9759 61.6953H29.0559V63.6153H30.9759V61.6953Z" fill="black"/>
<path d="M32.8961 61.6953H30.9761V63.6153H32.8961V61.6953Z" fill="black"/>
<path d="M34.8162 61.6953H32.8962V63.6153H34.8162V61.6953Z" fill="black"/>
<path d="M40.5762 61.6953H38.6562V63.6153H40.5762V61.6953Z" fill="black"/>
<path d="M46.3363 61.6953H44.4163V63.6153H46.3363V61.6953Z" fill="black"/>
<path d="M52.096 61.6953H50.176V63.6153H52.096V61.6953Z" fill="black"/>
<path d="M57.856 61.6953H55.936V63.6153H57.856V61.6953Z" fill="black"/>
<path d="M59.776 61.6953H57.856V63.6153H59.776V61.6953Z" fill="black"/>
<path d="M61.6964 61.6953H59.7764V63.6153H61.6964V61.6953Z" fill="black"/>
</g>
</g>
<defs>
<clipPath id="clip0_13669_38031">
<rect width="64" height="64" fill="white"/>
</clipPath>
<clipPath id="clip1_13669_38031">
<rect width="64" height="64" fill="white"/>
</clipPath>
</defs>
</svg>
